<?xml version="1.0" encoding="UTF-8" standalone="no"?>
<!-- Created with Inkscape (http://www.inkscape.org/) -->

<svg
   xmlns:osb="http://www.openswatchbook.org/uri/2009/osb"
   xmlns:dc="http://purl.org/dc/elements/1.1/"
   xmlns:cc="http://creativecommons.org/ns#"
   xmlns:rdf="http://www.w3.org/1999/02/22-rdf-syntax-ns#"
   xmlns:svg="http://www.w3.org/2000/svg"
   xmlns="http://www.w3.org/2000/svg"
   xmlns:xlink="http://www.w3.org/1999/xlink"
   xmlns:sodipodi="http://sodipodi.sourceforge.net/DTD/sodipodi-0.dtd"
   xmlns:inkscape="http://www.inkscape.org/namespaces/inkscape"
   width="48px"
   height="48px"
   id="svg3691"
   version="1.1"
   inkscape:version="0.48.3.1 r9886"
   inkscape:export-filename="/home/selvan/code/paperstencil/app/assets/images/fields/name2.png"
   inkscape:export-xdpi="45"
   inkscape:export-ydpi="45"
   sodipodi:docname="user.svg">
  <defs
     id="defs3693">
    <linearGradient
       id="linearGradient6161"
       osb:paint="solid">
      <stop
         style="stop-color:#000000;stop-opacity:1;"
         offset="0"
         id="stop6163" />
    </linearGradient>
    <linearGradient
       id="linearGradient6145"
       osb:paint="gradient">
      <stop
         style="stop-color:#000000;stop-opacity:1;"
         offset="0"
         id="stop6147" />
      <stop
         style="stop-color:#000000;stop-opacity:0;"
         offset="1"
         id="stop6149" />
    </linearGradient>
    <linearGradient
       id="gradient_buttonlike">
      <stop
         style="stop-color:#ffffff;stop-opacity:1;"
         offset="0"
         id="stop12131" />
      <stop
         style="stop-color:#f5f5f5;stop-opacity:1;"
         offset="0.01"
         id="stop12887" />
      <stop
         style="stop-color:#e6e6e6;stop-opacity:1;"
         offset="1"
         id="stop12133" />
    </linearGradient>
    <linearGradient
       id="gradient_3Deffect">
      <stop
         style="stop-color:#c0c0c0;stop-opacity:0.99607843;"
         offset="0"
         id="stop12119" />
      <stop
         style="stop-color:#ffffff;stop-opacity:1"
         offset="1"
         id="stop12121" />
    </linearGradient>
    <linearGradient
       id="gradient_buttonlike-1">
      <stop
         style="stop-color:#c8c8c8;stop-opacity:1;"
         offset="0"
         id="stop12131-3" />
      <stop
         style="stop-color:#dcdcdc;stop-opacity:1;"
         offset="1"
         id="stop12133-3" />
    </linearGradient>
    <linearGradient
       inkscape:collect="always"
       xlink:href="#linearGradient6145"
       id="linearGradient6151"
       x1="19.613615"
       y1="18.142859"
       x2="29.957811"
       y2="20"
       gradientUnits="userSpaceOnUse"
       gradientTransform="matrix(1,0,0,0.30035489,0,14.148169)" />
    <linearGradient
       inkscape:collect="always"
       xlink:href="#linearGradient6145"
       id="linearGradient6191"
       gradientUnits="userSpaceOnUse"
       gradientTransform="matrix(0.91790148,0,0,0.09039352,2.2094758,18.4904)"
       x1="19.613615"
       y1="18.142859"
       x2="29.957811"
       y2="20" />
  </defs>
  <sodipodi:namedview
     id="base"
     pagecolor="#ffffff"
     bordercolor="#666666"
     borderopacity="1.0"
     inkscape:pageopacity="0.0"
     inkscape:pageshadow="2"
     inkscape:zoom="7"
     inkscape:cx="-2.5714286"
     inkscape:cy="12.571429"
     inkscape:current-layer="layer1"
     showgrid="true"
     inkscape:grid-bbox="true"
     inkscape:document-units="px"
     showguides="true"
     inkscape:guide-bbox="true"
     inkscape:window-width="1301"
     inkscape:window-height="744"
     inkscape:window-x="65"
     inkscape:window-y="24"
     inkscape:window-maximized="1">
    <sodipodi:guide
       orientation="0,1"
       position="56.285714,24.285714"
       id="guide3706" />
    <sodipodi:guide
       orientation="1,0"
       position="24.142857,28.142857"
       id="guide3710" />
    <sodipodi:guide
       orientation="1,0"
       position="2,49.142857"
       id="guide3712" />
    <sodipodi:guide
       orientation="1,0"
       position="46,46.714286"
       id="guide3714" />
    <sodipodi:guide
       orientation="0,1"
       position="-36.285714,2"
       id="guide3716" />
    <sodipodi:guide
       orientation="0,1"
       position="-44.142857,46"
       id="guide3718" />
    <sodipodi:guide
       orientation="0,1"
       position="-36.714286,35"
       id="guide3722" />
    <sodipodi:guide
       orientation="0,1"
       position="-27.142857,13"
       id="guide3724" />
    <sodipodi:guide
       orientation="1,0"
       position="4,48.857143"
       id="guide3730" />
    <sodipodi:guide
       orientation="1,0"
       position="44,51.285714"
       id="guide3734" />
    <sodipodi:guide
       orientation="0,1"
       position="-35.571429,15"
       id="guide3736" />
    <sodipodi:guide
       orientation="0,1"
       position="-33.142857,33"
       id="guide3738" />
    <sodipodi:guide
       orientation="0,1"
       position="-33.142857,44"
       id="guide4017" />
    <sodipodi:guide
       orientation="0,1"
       position="-30,4"
       id="guide4019" />
  </sodipodi:namedview>
  <metadata
     id="metadata3696">
    <rdf:RDF>
      <cc:Work
         rdf:about="">
        <dc:format>image/svg+xml</dc:format>
        <dc:type
           rdf:resource="http://purl.org/dc/dcmitype/StillImage" />
        <dc:title></dc:title>
      </cc:Work>
    </rdf:RDF>
  </metadata>
  <g
     id="layer1"
     inkscape:label="Layer 1"
     inkscape:groupmode="layer">
    <path
       style="opacity:0.75000000000000000;fill:#4d4d4d;fill-opacity:1;stroke:#7db442;stroke-width:0.22868936000000001;stroke-miterlimit:4;stroke-opacity:0;stroke-dasharray:none"
       d="m 23.415179,8.84375 c -0.507979,0.012654 -1.01648,0.082711 -1.53125,0.21875 -2.358674,0.6233327 -4.205823,2.459912 -5.1875,4.8125 -0.432384,-0.58333 -0.980351,-0.840276 -1.53125,-0.59375 -1.051021,0.470329 -1.706981,2.550017 -1.46875,4.625 0.238231,2.074983 1.292729,3.376579 2.34375,2.90625 0.09853,-0.04409 0.190026,-0.116707 0.28125,-0.1875 1.236111,4.289827 5.070514,6.896938 8.9375,5.875 2.80583,-0.741503 4.898424,-3.214039 5.65625,-6.21875 0.192149,0.01205 0.397355,0.01312 0.59375,-0.0625 1.217952,-0.468987 1.963569,-2.524691 1.6875,-4.59375 -0.278389,-2.064664 -1.471505,-3.343233 -2.6875,-2.875 -0.164404,0.06331 -0.322344,0.132685 -0.46875,0.25 -1.418155,-2.609557 -3.930091,-4.2233798 -6.625,-4.15625 z"
       id="path6045"
       inkscape:connector-curvature="0" />
    <path
       style="fill:none;stroke:#000000;stroke-width:1px;stroke-linecap:butt;stroke-linejoin:miter;stroke-opacity:1"
       d="m 20.285714,28.571429 c 0,0 -6.571428,2.428571 -8.5,4.428571 -1.9285711,2 -3.0714283,7.571429 -3.0714283,7.571429 l 31.1428573,0.142857 c 0,0 -0.285714,-5.52381 -2.285714,-7.714286 -2,-2.190476 -9.714286,-5.428571 -9.714286,-5.428571"
       id="path6080"
       inkscape:connector-curvature="0"
       sodipodi:nodetypes="csccsc" />
    <path
       style="opacity:0.75000000000000000;fill:#4d4d4d;fill-opacity:1;stroke:#7db442;stroke-width:0.02857143000000000;stroke-miterlimit:4;stroke-opacity:0;stroke-dasharray:none"
       d="M 23.306561,40.092867 9.4274073,40.055733 9.7691424,38.806438 c 0.7005886,-2.56117 1.6984866,-4.648087 2.6565826,-5.555746 0.977192,-0.925749 2.726302,-1.88448 5.965385,-3.269777 l 2.062539,-0.88211 0.757395,0.818077 c 0.985566,1.064528 1.92178,1.489884 3.053403,1.387272 0.44193,-0.04007 1.00387,-0.17647 1.248756,-0.303105 0.635548,-0.328655 1.7915,-1.525929 2.125986,-2.201983 l 0.284961,-0.575958 2.364549,1.109436 c 4.806062,2.254986 6.750505,3.589443 7.556394,5.185899 0.444016,0.879591 1.041103,2.975692 1.19114,4.181557 0.04888,0.392857 0.12369,0.891071 0.166243,1.107143 L 39.279846,40.2 38.232782,40.165 C 37.656895,40.14575 30.940098,40.11329 23.306563,40.09287 z"
       id="path6100"
       inkscape:connector-curvature="0" />
    <path
       style="opacity:0.59999999999999998;fill:#4d4d4d;fill-opacity:1;stroke:#000000;stroke-width:0.02857143000000000;stroke-miterlimit:4;stroke-opacity:0.57077630999999995;stroke-dasharray:none"
       d="m 21.6,26.311445 c -2.235701,-0.790333 -4.048055,-2.62981 -4.929199,-5.002969 -0.249126,-0.670962 -0.2564,-0.676447 -0.784949,-0.591928 -0.691386,0.110557 -1.05344,-0.09513 -1.479649,-0.840604 -0.5069,-0.88661 -0.712233,-1.966454 -0.628655,-3.306095 0.154521,-2.47679 1.383216,-3.879301 2.576335,-2.940794 l 0.363842,0.286199 0.535786,-0.96477 c 0.631952,-1.137934 2.125072,-2.661669 3.145572,-3.2100689 2.038741,-1.0955857 4.250271,-1.0732863 6.38475,0.064379 0.986113,0.5255929 2.339357,1.8020099 2.823233,2.6629509 0.24089,0.428605 0.398727,0.571296 0.557354,0.503867 1.220963,-0.519009 2.217101,0.129633 2.725149,1.774497 0.710072,2.298948 -0.113212,5.021137 -1.64224,5.430062 -0.324932,0.0869 -0.454568,0.264349 -0.711498,0.973925 -0.673778,1.860795 -1.80829,3.363642 -3.220115,4.265575 -1.366471,0.872957 -2.041633,1.09756 -3.50143,1.164804 -1.076852,0.0496 -1.43656,0.0059 -2.214286,-0.26903 l 0,0 z"
       id="path4925"
       inkscape:connector-curvature="0"
       inkscape:export-xdpi="45"
       inkscape:export-ydpi="45" />
    <path
       style="opacity:0.59999999999999998;fill:#4d4d4d;fill-opacity:1;stroke:#000000;stroke-width:0.02857143000000000;stroke-miterlimit:4;stroke-opacity:0.57077630999999995;stroke-dasharray:none"
       d="m 15.517297,40.057142 -6.0112746,-0.07143 0.4630001,-1.515749 c 1.4591565,-4.776921 2.4057625,-5.745229 8.0312545,-8.215379 l 2.384698,-1.04712 0.786084,0.774828 c 2.114352,2.084076 4.523925,1.799154 6.222722,-0.735812 0.306732,-0.457708 0.56723,-0.851172 0.578886,-0.874364 0.05097,-0.101414 4.98003,2.350995 6.32919,3.149029 2.603313,1.53987 3.437247,2.526783 4.134666,4.893138 0.292328,0.991875 0.777024,3.505501 0.692294,3.59023 -0.08445,0.08445 -17.640306,0.12358 -23.61152,0.05263 z"
       id="path4927"
       inkscape:connector-curvature="0" />
  </g>
</svg>
